<svg width="40" height="40" viewBox="0 0 40 40" fill="none" xmlns="http://www.w3.org/2000/svg">
<path d="M26.5346 24.9531C26.144 24.2437 26.6409 23.5219 27.4909 22.6281C28.8377 21.2094 30.0065 17.1125 27.3409 14.3312C27.3502 14.3125 27.0721 13.75 27.0815 13.7312L26.5221 13.7031C26.344 13.6781 21.7909 13.9125 15.6346 13.9125C9.47836 13.9125 4.27211 13.8625 4.09086 13.8875C4.09086 13.8875 3.84399 14.2125 3.85336 14.2312C1.48461 16.6281 1.25961 20.2719 3.77211 22.625C4.67211 23.4656 5.11586 24.2406 4.72836 24.95C4.35024 25.6406 3.22524 25.7406 3.22524 25.7406C3.22524 25.7406 3.48461 26.4468 4.10961 26.8281C4.68774 27.1812 5.40024 27.2625 5.89086 27.275C5.89086 27.275 7.81274 29.9344 12.8377 29.9344H18.4315C23.4565 29.9344 25.3784 27.275 25.3784 27.275C25.869 27.2625 26.5815 27.1812 27.1596 26.8281C27.7846 26.4468 28.044 25.7406 28.044 25.7406C28.044 25.7406 26.9127 25.6437 26.5346 24.9531Z" fill="#543930"/>
<path d="M15.625 29.9344V26.9844L24.5531 26.2781L25.3656 27.2781C25.3656 27.2781 23.4437 29.9375 18.4187 29.9375L15.625 29.9344Z" fill="url(#paint0_radial_303_23)"/>
<path d="M25.347 25.9875C24.0095 23.9563 26.9751 23.1969 26.9751 23.1969L26.9783 23.2C26.4626 23.8406 26.2283 24.4 26.5314 24.9531C26.9095 25.6438 28.0345 25.7438 28.0345 25.7438C28.0345 25.7438 26.5001 27.1063 25.347 25.9875Z" fill="url(#paint1_radial_303_23)"/>
<path d="M27.3439 14.3281C29.5938 16.7031 29.2907 20.2188 27.5689 22.5469C27.4126 22.7594 26.6282 23.4875 26.4532 24.0844C26.4532 24.0844 23.472 19.925 22.5814 17.4812C22.4032 16.9875 22.2376 16.4813 22.2157 15.9563C22.2001 15.5625 22.2595 15.0937 22.4876 14.7594C22.7657 14.3531 27.1876 13.9844 27.1876 13.9844C27.1845 13.9875 27.3439 14.3281 27.3439 14.3281Z" fill="url(#paint2_radial_303_23)"/>
<path d="M3.84699 14.2313C1.36886 16.7844 1.39699 20.4094 3.69386 22.5469C3.88761 22.725 4.63449 23.4875 4.80949 24.0844C4.80949 24.0844 7.79074 19.925 8.68136 17.4813C8.86261 16.9875 9.02511 16.4813 9.04699 15.9563C9.06261 15.5625 9.00324 15.0938 8.77511 14.7594C8.49699 14.35 8.17199 14.4594 7.70011 14.4594C6.80011 14.4594 4.39074 13.8844 4.08449 13.8844C4.08761 13.8906 3.84699 14.2313 3.84699 14.2313Z" fill="url(#paint3_radial_303_23)"/>
<path d="M15.6376 29.9344V26.9844L6.70947 26.2781L5.89697 27.2781C5.89697 27.2781 7.81885 29.9375 12.8438 29.9375L15.6376 29.9344Z" fill="url(#paint4_radial_303_23)"/>
<path d="M5.91553 25.9875C7.25303 23.9563 4.2874 23.1969 4.2874 23.1969L4.28428 23.2C4.7999 23.8406 5.03428 24.4 4.73115 24.9531C4.35303 25.6438 3.22803 25.7438 3.22803 25.7438C3.22803 25.7438 4.7624 27.1063 5.91553 25.9875Z" fill="url(#paint5_radial_303_23)"/>
<path d="M15.6279 29.9187C8.58105 29.9281 1.25293 32.1937 1.25293 37.75V38.75H30.0029V37.75C30.0029 32.5062 22.7186 29.9094 15.6279 29.9187Z" fill="url(#paint6_linear_303_23)"/>
<path d="M35.5469 37.75C35.5469 36.1 34.6531 34.6594 32.8844 33.4594L31.7812 38.75H35.5469V37.75Z" fill="url(#paint7_linear_303_23)"/>
<path d="M33.1938 34.2719C34.4438 35.2875 35.0782 36.45 35.0782 37.75V38.75H36.0157V37.75C36.0157 35.6375 34.6813 33.9563 32.5657 32.7031L31.3032 38.75H32.2626L33.1938 34.2719Z" fill="#1B2B8F"/>
<path d="M15.628 28.8656H12.7905V31.9843C12.7905 33.3937 13.9468 34.5375 15.3718 34.5375H15.8874C17.3124 34.5375 18.4687 33.3937 18.4687 31.9843V28.8656H15.628Z" fill="#E59600"/>
<path d="M24.1654 15.775H7.08418C5.24355 15.775 3.7373 17.3781 3.7373 19.3406C3.7373 21.3031 5.24355 22.9063 7.08418 22.9063H24.1623C26.0029 22.9063 27.5092 21.3 27.5092 19.3406C27.5092 17.3813 26.0061 15.775 24.1654 15.775Z" fill="#E59600"/>
<path d="M15.6249 3.47186C10.1874 3.47186 5.1499 9.28749 5.1499 17.6594C5.1499 25.9844 10.3405 30.1 15.6249 30.1C20.9093 30.1 26.0999 25.9844 26.0999 17.6594C26.0999 9.28749 21.0624 3.47186 15.6249 3.47186Z" fill="#FFCA28"/>
<path d="M18.2248 23.7937C17.2404 24.3781 14.0154 24.3781 13.0342 23.7937C12.4686 23.4594 11.8936 23.9719 12.1279 24.4844C12.3592 24.9875 14.1186 26.1594 15.6373 26.1594C17.1561 26.1594 18.8936 24.9875 19.1248 24.4844C19.3592 23.9719 18.7873 23.4562 18.2248 23.7937Z" fill="#795548"/>
<path d="M16.8155 21.2688C16.7842 21.2563 16.7499 21.2469 16.7155 21.2438H14.5311C14.4967 21.2469 14.4655 21.2563 14.4311 21.2688C14.2342 21.35 14.1249 21.5531 14.2186 21.7719C14.3124 21.9906 14.7467 22.6031 15.6217 22.6031C16.4967 22.6031 16.9311 21.9906 17.0249 21.7719C17.1217 21.5531 17.0155 21.3469 16.8155 21.2688Z" fill="#E59600"/>
<path d="M10.4874 19.9719C11.3383 19.9719 12.028 19.2583 12.028 18.3781C12.028 17.4979 11.3383 16.7844 10.4874 16.7844C9.63654 16.7844 8.94678 17.4979 8.94678 18.3781C8.94678 19.2583 9.63654 19.9719 10.4874 19.9719Z" fill="#404040"/>
<path d="M20.7623 19.9719C21.6132 19.9719 22.3029 19.2583 22.3029 18.3781C22.3029 17.4979 21.6132 16.7844 20.7623 16.7844C19.9114 16.7844 19.2217 17.4979 19.2217 18.3781C19.2217 19.2583 19.9114 19.9719 20.7623 19.9719Z" fill="#404040"/>
<path d="M12.8093 15.5687C12.5186 15.1844 11.8499 14.6281 10.5499 14.6281C9.24987 14.6281 8.578 15.1875 8.2905 15.5687C8.16238 15.7375 8.19362 15.9344 8.28425 16.0531C8.3655 16.1625 8.60925 16.2656 8.878 16.175C9.14675 16.0844 9.67175 15.8125 10.5499 15.8062C11.428 15.8125 11.953 16.0844 12.2217 16.175C12.4905 16.2656 12.7342 16.1656 12.8155 16.0531C12.903 15.9344 12.9343 15.7375 12.8093 15.5687ZM22.9624 15.5687C22.6718 15.1844 22.003 14.6281 20.703 14.6281C19.403 14.6281 18.7311 15.1875 18.4436 15.5687C18.3155 15.7375 18.3468 15.9344 18.4374 16.0531C18.5186 16.1625 18.7624 16.2656 19.0311 16.175C19.2999 16.0844 19.8249 15.8125 20.703 15.8062C21.5811 15.8125 22.1061 16.0844 22.3749 16.175C22.6436 16.2656 22.8874 16.1656 22.9686 16.0531C23.0592 15.9344 23.0905 15.7375 22.9624 15.5687Z" fill="#6D4C41"/>
<path d="M18.5345 32.675H12.3188L14.7845 38.75H16.3626L18.5345 32.675Z" fill="#F5F5F5"/>
<path d="M12.7779 29.9906L10.3467 30.275L7.84668 35.6625L11.2436 34.3219L14.2311 38.75H15.0811L12.7779 29.9906Z" fill="url(#paint8_linear_303_23)"/>
<path d="M20.9092 30.275L18.4779 29.9906L16.1748 38.75H17.1154L20.2561 34.375L23.4092 35.6625L20.9092 30.275Z" fill="url(#paint9_linear_303_23)"/>
<path d="M38.0688 17.7313C37.9625 17.5438 37.7813 17.4563 37.6031 17.4563C37.3656 17.4563 37.1344 17.6094 37.0813 17.8875L36.625 20.3562C36.5937 20.5219 36.4875 20.6656 36.3344 20.7375L33.8094 21.9469C33.7087 21.9963 33.5948 22.012 33.4845 21.9918C33.3743 21.9715 33.2734 21.9163 33.1969 21.8344L31.2719 19.8031C31.1563 19.6812 31.1062 19.5094 31.1344 19.3438L31.5906 16.875C31.6562 16.5188 31.375 16.25 31.0656 16.25C30.95 16.25 30.8313 16.2875 30.725 16.375C29.8031 17.1406 29.125 18.2406 28.8844 19.5375C28.5438 21.3813 29.1688 23.1656 30.3906 24.3281C30.9406 24.8531 31.2031 25.6094 31.0656 26.3562L28.7812 38.75H32.0062L34.1906 26.9312C34.3281 26.1844 34.8438 25.5719 35.5437 25.2781C37.1 24.6281 38.3219 23.1875 38.6625 21.3406C38.8969 20.0469 38.6594 18.775 38.0688 17.7313Z" fill="url(#paint10_linear_303_23)"/>
<path d="M29.5346 36.6718L28.9408 37.3437C28.9408 37.3437 27.1658 36.9656 27.3752 35.9375C27.4252 35.6937 27.8627 35.175 27.8627 35.175C27.8627 35.175 26.9721 34.4406 27.1127 33.9437C27.2533 33.4531 28.1033 33.0719 28.1033 33.0719C28.1033 33.0719 27.444 32.6781 27.7033 31.9375C27.8815 31.4312 28.8065 31.2625 28.8065 31.2625C28.8065 31.2625 27.944 29.9968 29.6971 29.7093C30.2502 29.6187 31.4908 29.8031 32.6033 30.625C33.7158 31.4468 34.2252 31.9406 34.7377 33.0218C35.519 34.6625 34.1377 37.475 33.0783 37.5C32.194 37.5187 29.5346 36.6718 29.5346 36.6718Z" fill="url(#paint11_linear_303_23)"/>
<path d="M4.06235 14.0031C4.57485 15.3937 4.77173 16.4 4.77173 16.4C4.62798 18.9031 5.0936 20.4437 5.34048 21.0687C5.38423 21.1781 5.53735 21.1687 5.56548 21.0562C5.87485 19.8156 6.92798 15.4937 6.82485 14.7406C6.82485 14.7406 10.3686 14.0375 13.753 11.5469C14.4405 11.0406 15.1874 10.6094 15.9811 10.2937C20.228 8.60311 21.1155 11.4875 21.1155 11.4875C21.1155 11.4875 24.0592 10.9219 24.9467 15.0094C25.2811 16.5406 25.5061 18.9937 25.6967 20.7094C25.7092 20.8312 25.8749 20.8562 25.9217 20.7437C26.2186 20.0625 26.8124 18.7125 26.953 17.3344C27.003 16.85 27.2342 16.1594 27.1811 14.0031C27.1499 12.7187 21.3624 7.44686 15.6217 7.51873C9.64985 7.59373 3.71548 13.0594 4.06235 14.0031Z" fill="#543930"/>
<path d="M15.5404 1.43439C21.1467 1.43439 26.2935 5.07814 27.1873 14.0031C27.1873 14.0031 24.1404 11.4969 15.6967 11.4969C6.55605 11.4969 4.03105 14.1625 4.0623 13.8719C5.0373 4.95939 10.1842 1.43439 15.6967 1.43439H15.5404Z" fill="url(#paint12_linear_303_23)"/>
<path d="M8.41553 10.7656C8.41553 4.90939 11.2187 1.76251 15.5405 1.76251C19.8624 1.76251 22.6655 5.03439 22.6655 10.7656C22.6655 15.4219 19.2968 11.7563 15.5405 11.7563C11.7843 11.7563 8.41553 15.425 8.41553 10.7656Z" fill="url(#paint13_linear_303_23)"/>
<path d="M15.6531 8.90314C8.84994 8.90314 5.58744 12.6188 5.58744 12.6188C5.58119 13.2344 6.27494 14.3438 7.85307 14.5969C10.0249 14.9469 11.4281 13.1906 15.6187 13.1906H15.6406V13.1813L15.6531 13.1906H15.6749C19.8656 13.1906 21.2656 14.9438 23.4406 14.5969C25.0187 14.3438 25.5937 13.3938 25.5874 12.7813C25.5843 12.7781 22.5374 8.90314 15.6531 8.90314Z" fill="#5E97F6"/>
<defs>
<radialGradient id="paint0_radial_303_23" cx="0" cy="0" r="1" gradientUnits="userSpaceOnUse" gradientTransform="translate(20.185 25.672) scale(7.31844 3.59482)">
<stop offset="0.728" stop-color="#6D4C41" stop-opacity="0"/>
<stop offset="1" stop-color="#6D4C41"/>
</radialGradient>
<radialGradient id="paint1_radial_303_23" cx="0" cy="0" r="1" gradientUnits="userSpaceOnUse" gradientTransform="translate(27.3943 24.5828) rotate(154.924) scale(2.1627 1.60442)">
<stop offset="0.663" stop-color="#6D4C41"/>
<stop offset="1" stop-color="#6D4C41" stop-opacity="0"/>
</radialGradient>
<radialGradient id="paint2_radial_303_23" cx="0" cy="0" r="1" gradientUnits="userSpaceOnUse" gradientTransform="translate(21.8204 18.325) rotate(-94.2783) scale(9.73362 8.11235)">
<stop offset="0.725" stop-color="#6D4C41" stop-opacity="0"/>
<stop offset="1" stop-color="#6D4C41"/>
</radialGradient>
<radialGradient id="paint3_radial_303_23" cx="0" cy="0" r="1" gradientUnits="userSpaceOnUse" gradientTransform="translate(9.46272 18.2689) rotate(-85.7217) scale(9.82893 8.19178)">
<stop offset="0.725" stop-color="#6D4C41" stop-opacity="0"/>
<stop offset="1" stop-color="#6D4C41"/>
</radialGradient>
<radialGradient id="paint4_radial_303_23" cx="0" cy="0" r="1" gradientUnits="userSpaceOnUse" gradientTransform="translate(11.0779 25.672) rotate(180) scale(7.31844 3.59482)">
<stop offset="0.728" stop-color="#6D4C41" stop-opacity="0"/>
<stop offset="1" stop-color="#6D4C41"/>
</radialGradient>
<radialGradient id="paint5_radial_303_23" cx="0" cy="0" r="1" gradientUnits="userSpaceOnUse" gradientTransform="translate(3.86967 24.5831) rotate(25.0761) scale(2.1627 1.60442)">
<stop offset="0.663" stop-color="#6D4C41"/>
<stop offset="1" stop-color="#6D4C41" stop-opacity="0"/>
</radialGradient>
<linearGradient id="paint6_linear_303_23" x1="15.6276" y1="29.9197" x2="15.6276" y2="40.9906" gradientUnits="userSpaceOnUse">
<stop offset="0.003" stop-color="#303F9F"/>
<stop offset="0.472" stop-color="#273492"/>
<stop offset="1" stop-color="#1A237E"/>
</linearGradient>
<linearGradient id="paint7_linear_303_23" x1="33.6638" y1="33.4603" x2="33.6638" y2="38.75" gradientUnits="userSpaceOnUse">
<stop offset="0.003" stop-color="#303F9F"/>
<stop offset="0.472" stop-color="#273492"/>
<stop offset="1" stop-color="#1A237E"/>
</linearGradient>
<linearGradient id="paint8_linear_303_23" x1="9.57668" y1="31.0284" x2="12.8904" y2="39.1387" gradientUnits="userSpaceOnUse">
<stop stop-color="#5C6BC0"/>
<stop offset="1" stop-color="#3949AB"/>
</linearGradient>
<linearGradient id="paint9_linear_303_23" x1="21.5701" y1="30.6459" x2="19.1282" y2="39.149" gradientUnits="userSpaceOnUse">
<stop stop-color="#5C6BC0"/>
<stop offset="1" stop-color="#3949AB"/>
</linearGradient>
<linearGradient id="paint10_linear_303_23" x1="34.4156" y1="16.4228" x2="30.8981" y2="38.4575" gradientUnits="userSpaceOnUse">
<stop stop-color="#90A4AE"/>
<stop offset="0.267" stop-color="#889DA8"/>
<stop offset="0.584" stop-color="#78909C"/>
<stop offset="1" stop-color="#607D8B"/>
</linearGradient>
<linearGradient id="paint11_linear_303_23" x1="27.0993" y1="33.5925" x2="34.969" y2="33.5925" gradientUnits="userSpaceOnUse">
<stop stop-color="#FFB300"/>
<stop offset="0.5" stop-color="#FFCA28"/>
</linearGradient>
<linearGradient id="paint12_linear_303_23" x1="15.6251" y1="12.1497" x2="15.6251" y2="-0.418113" gradientUnits="userSpaceOnUse">
<stop stop-color="#0068B5"/>
<stop offset="0.807" stop-color="#4C8EEA"/>
<stop offset="1" stop-color="#5E97F6"/>
</linearGradient>
<linearGradient id="paint13_linear_303_23" x1="15.5408" y1="14.2072" x2="15.5408" y2="6.15845" gradientUnits="userSpaceOnUse">
<stop stop-color="#0068B5"/>
<stop offset="1" stop-color="#5E97F6"/>
</linearGradient>
</defs>
</svg>
