<svg width="40" height="40" viewBox="0 0 40 40" fill="none" xmlns="http://www.w3.org/2000/svg">
<path d="M5.00001 33.125V37.5H32.48V33.2075C32.4829 31.1757 32.0382 29.1682 31.1775 27.3278C30.3168 25.4873 29.0612 23.8591 27.5 22.5588L26.25 22.5L25 20.8963C23.0656 19.8944 20.9185 19.3726 18.74 19.375C16.4938 19.375 14.3725 19.915 12.5 20.8725L11.25 22.5L10 22.5163C8.43483 23.8055 7.17469 25.4256 6.31017 27.2599C5.44565 29.0942 4.99821 31.0972 5.00001 33.125Z" fill="#D3D3D3"/>
<path d="M12.5 20.8726C11.605 21.3301 10.7675 21.8826 10 22.5163V37.5001H27.5V22.5588C26.7297 21.9153 25.8914 21.3578 25 20.8963V27.5001C25 27.8316 24.8683 28.1495 24.6339 28.3839C24.3995 28.6184 24.0815 28.7501 23.75 28.7501H13.75C13.4185 28.7501 13.1005 28.6184 12.8661 28.3839C12.6317 28.1495 12.5 27.8316 12.5 27.5001V20.8726Z" fill="#0084CE"/>
<path d="M14.85 26.9251L18.2375 24.0001C18.5375 23.7501 18.9625 23.7501 19.2625 24.0001L22.65 26.9251C23.1125 27.2501 23.75 26.925 23.75 26.35V20.3C22.2 19.7 20.5125 19.3625 18.75 19.3625C16.9875 19.3625 15.3 19.7 13.75 20.3V26.35C13.75 26.925 14.3875 27.2501 14.85 26.9251Z" fill="#E6E6E6"/>
<path d="M15.3 30H13.4875C12.25 30 11.25 31 11.25 32.2375C11.25 33.475 12.25 34.475 13.4875 34.475H15.3C16.5375 34.475 17.5375 33.475 17.5375 32.2375C17.5375 31 16.5375 30 15.3 30Z" fill="#F8312F"/>
<path d="M15.3 33.85H13.4875C12.6 33.85 11.875 33.125 11.875 32.2375C11.875 31.35 12.6 30.625 13.4875 30.625H15.3C16.1875 30.625 16.9125 31.35 16.9125 32.2375C16.9125 33.1375 16.2 33.85 15.3 33.85Z" fill="#E6E6E6"/>
<path d="M18.75 23.3375C17.3663 23.3375 16.25 22.1875 16.25 20.7625V17.5625C16.25 16.15 17.3663 15 18.75 15C20.1337 15 21.25 16.15 21.25 17.575V20.775C21.2375 22.1875 20.1212 23.3375 18.75 23.3375Z" fill="#8B5C56"/>
<path d="M11.7626 9.46252H14.7501V11.6688C15.0376 11.585 15.3251 11.5 15.6126 11.4125V19.4875L13.2501 18.675C12.7145 18.4895 12.2498 18.142 11.9206 17.6806C11.5914 17.2192 11.4138 16.6668 11.4126 16.1V12.55L11.7626 12.4625V9.46252ZM22.7376 9.46252H25.7251V12.4875L26.0876 12.5875V16.1C26.0876 17.2625 25.3501 18.3 24.2501 18.675L21.8876 19.4875V11.3625C22.1713 11.4438 22.4551 11.525 22.7376 11.61V9.46252Z" fill="#2D242D"/>
<path d="M14.6999 13.2375C14.6999 13.7912 14.48 14.3221 14.0885 14.7136C13.697 15.1051 13.166 15.325 12.6124 15.325C12.0588 15.325 11.5278 15.1051 11.1363 14.7136C10.7448 14.3221 10.5249 13.7912 10.5249 13.2375C10.5249 12.6839 10.7448 12.1529 11.1363 11.7614C11.5278 11.37 12.0588 11.15 12.6124 11.15C13.166 11.15 13.697 11.37 14.0885 11.7614C14.48 12.1529 14.6999 12.6839 14.6999 13.2375ZM26.9499 13.2375C26.9499 13.7912 26.73 14.3221 26.3385 14.7136C25.947 15.1051 25.416 15.325 24.8624 15.325C24.3088 15.325 23.7778 15.1051 23.3863 14.7136C22.9948 14.3221 22.7749 13.7912 22.7749 13.2375C22.7749 12.6839 22.9948 12.1529 23.3863 11.7614C23.7778 11.37 24.3088 11.15 24.8624 11.15C25.416 11.15 25.947 11.37 26.3385 11.7614C26.73 12.1529 26.9499 12.6839 26.9499 13.2375Z" fill="#8B5C56"/>
<path d="M20.2139 3.75H17.2876C14.0089 3.75 11.5376 6.3975 11.9139 9.67125L12.4089 16.9338C12.7601 19.4062 14.9464 21.25 17.5214 21.25H19.9939C22.5839 21.25 24.7564 19.4062 25.1064 16.935L25.5764 9.67125C26.0176 6.535 23.4939 3.75 20.2139 3.75Z" fill="#966661"/>
<path d="M13.9752 12.85C14.1627 12.075 14.8627 11.5 15.7002 11.5C16.5627 11.5 17.2877 12.1125 17.4502 12.9375C17.4597 12.9801 17.4594 13.0243 17.4493 13.0668C17.4391 13.1092 17.4195 13.1488 17.3918 13.1826C17.364 13.2163 17.329 13.2433 17.2893 13.2615C17.2496 13.2796 17.2063 13.2885 17.1627 13.2875H14.3127C14.0877 13.2875 13.9127 13.0625 13.9752 12.85ZM23.5377 12.85C23.3502 12.075 22.6502 11.5 21.8127 11.5C20.9377 11.5 20.2252 12.1125 20.0627 12.9375C20.0252 13.125 20.1627 13.2875 20.3502 13.2875H23.2002C23.4252 13.2875 23.5877 13.075 23.5377 12.85Z" fill="white"/>
<path d="M14.8252 12.975C14.8252 12.35 15.3377 11.8375 15.9627 11.8375C16.6002 11.8375 17.1002 12.35 17.1002 12.975C17.1002 13.075 17.0877 13.175 17.0627 13.275H14.8627C14.8379 13.1769 14.8253 13.0761 14.8252 12.975ZM22.6877 12.975C22.6877 12.35 22.1752 11.8375 21.5502 11.8375C21.4004 11.8358 21.2517 11.8641 21.1129 11.9206C20.9742 11.9772 20.8481 12.0609 20.7421 12.1669C20.6362 12.2729 20.5524 12.3989 20.4959 12.5377C20.4393 12.6765 20.411 12.8251 20.4127 12.975C20.4127 13.075 20.4252 13.175 20.4502 13.275H22.6502C22.6752 13.175 22.6877 13.075 22.6877 12.975Z" fill="#7D4533"/>
<path d="M15.9627 12.325C16.0748 12.3238 16.1853 12.3519 16.2832 12.4064C16.3811 12.461 16.4632 12.5401 16.5212 12.636C16.5793 12.7319 16.6113 12.8412 16.6142 12.9533C16.6171 13.0653 16.5907 13.1762 16.5377 13.275H15.3877C15.3347 13.1762 15.3084 13.0653 15.3113 12.9533C15.3141 12.8412 15.3462 12.7319 15.4042 12.636C15.4623 12.5401 15.5443 12.461 15.6422 12.4064C15.7402 12.3519 15.8506 12.3238 15.9627 12.325ZM21.5502 12.325C21.4381 12.3238 21.3277 12.3519 21.2297 12.4064C21.1318 12.461 21.0498 12.5401 20.9917 12.636C20.9337 12.7319 20.9016 12.8412 20.8988 12.9533C20.8959 13.0653 20.9222 13.1762 20.9752 13.275H22.1252C22.1782 13.1762 22.2046 13.0653 22.2017 12.9533C22.1988 12.8412 22.1668 12.7319 22.1087 12.636C22.0507 12.5401 21.9686 12.461 21.8707 12.4064C21.7728 12.3519 21.6623 12.3238 21.5502 12.325Z" fill="black"/>
<path d="M15.775 12.525C15.775 12.578 15.7539 12.6289 15.7164 12.6664C15.6789 12.7039 15.628 12.725 15.575 12.725C15.522 12.725 15.4711 12.7039 15.4336 12.6664C15.3961 12.6289 15.375 12.578 15.375 12.525C15.375 12.4719 15.3961 12.421 15.4336 12.3835C15.4711 12.346 15.522 12.325 15.575 12.325C15.628 12.325 15.6789 12.346 15.7164 12.3835C15.7539 12.421 15.775 12.4719 15.775 12.525ZM21.3875 12.525C21.3875 12.578 21.3664 12.6289 21.3289 12.6664C21.2914 12.7039 21.2405 12.725 21.1875 12.725C21.1345 12.725 21.0836 12.7039 21.0461 12.6664C21.0086 12.6289 20.9875 12.578 20.9875 12.525C20.9875 12.4719 21.0086 12.421 21.0461 12.3835C21.0836 12.346 21.1345 12.325 21.1875 12.325C21.2405 12.325 21.2914 12.346 21.3289 12.3835C21.3664 12.421 21.3875 12.4719 21.3875 12.525Z" fill="white"/>
<path d="M14.1814 11.1213C14.2421 11.1644 14.3153 11.1864 14.3897 11.1842C14.4641 11.1819 14.5358 11.1555 14.5939 11.1088C15.1461 10.7424 15.811 10.5851 16.4689 10.6651C16.5133 10.6708 16.5585 10.6675 16.6016 10.6554C16.6448 10.6433 16.685 10.6227 16.72 10.5947C16.755 10.5667 16.784 10.5319 16.8053 10.4925C16.8266 10.453 16.8397 10.4097 16.8439 10.3651C16.853 10.2757 16.8267 10.1863 16.7706 10.1162C16.7145 10.046 16.6331 10.0007 16.5439 9.99006C15.7075 9.88162 14.8607 10.0889 14.1689 10.5713C14.1266 10.6041 14.0927 10.6464 14.0698 10.6947C14.0468 10.743 14.0355 10.796 14.0367 10.8495C14.0379 10.9029 14.0516 10.9553 14.0768 11.0026C14.1019 11.0498 14.1377 11.0904 14.1814 11.1213ZM22.9326 11.1138C22.991 11.1586 23.0622 11.1836 23.1357 11.1849C23.2093 11.1863 23.2814 11.164 23.3414 11.1213C23.385 11.0906 23.4208 11.05 23.446 11.0029C23.4711 10.9558 23.4848 10.9035 23.486 10.8501C23.4872 10.7967 23.4759 10.7438 23.453 10.6956C23.43 10.6474 23.3961 10.6053 23.3539 10.5726C22.6613 10.0918 21.8153 9.88429 20.9789 9.99006C20.8912 10.0035 20.8122 10.0503 20.7584 10.1208C20.7046 10.1913 20.6802 10.2799 20.6904 10.368C20.7006 10.4561 20.7446 10.5368 20.8131 10.5931C20.8815 10.6495 20.9692 10.677 21.0576 10.6701C21.7156 10.5887 22.3809 10.7462 22.9326 11.1138Z" fill="#372128"/>
<path d="M18.3623 12.8875L17.6998 15.025C17.5623 15.4625 17.8873 15.9125 18.3498 15.9125H19.3248C19.7873 15.9125 20.1123 15.4625 19.9748 15.025L19.3123 12.8875C19.1748 12.4125 18.5123 12.4125 18.3623 12.8875Z" fill="#75443E"/>
<path d="M18.75 17.0999C18.075 17.0999 17.4375 16.9374 16.9 16.6499C16.7125 16.5499 16.525 16.7624 16.6375 16.9374C17.0875 17.6249 17.8625 18.0874 18.75 18.0874C19.6375 18.0874 20.4125 17.6249 20.8625 16.9374C20.975 16.7624 20.775 16.5624 20.6 16.6499C20.0625 16.9374 19.4375 17.0999 18.75 17.0999Z" fill="#990838"/>
<path d="M24.7248 4.3875C23.5873 3.0375 21.8623 2.5 20.0623 2.5H17.4248C15.6248 2.5 13.8998 3.0375 12.7623 4.3875C11.8873 5.425 11.4123 7.325 11.7623 9.4625L11.8498 9.45C11.8998 9.4125 11.9498 9.375 11.9998 9.35C13.3123 8.5125 14.8498 8 16.3748 7.7375C17.1623 7.6 17.9623 7.525 18.7498 7.5125C19.5373 7.525 20.3373 7.6125 21.1248 7.7375C22.6498 8 24.1873 8.5125 25.4998 9.35C25.5498 9.3875 25.5998 9.4125 25.6373 9.45L25.7248 9.4625C26.0748 7.3375 25.5998 5.425 24.7248 4.3875Z" fill="#0084CE"/>
<path d="M14.1252 7.825C13.2752 8.2125 12.5127 8.75 11.7627 9.4625L12.2752 10.1C12.6627 10.575 13.3377 10.7125 13.8752 10.4125C14.8252 9.8875 16.5127 9.175 18.7502 9.175C20.9877 9.175 22.6752 9.8875 23.6252 10.4125C23.8839 10.557 24.1856 10.605 24.4763 10.5477C24.7671 10.4905 25.0281 10.3318 25.2127 10.1L25.7252 9.4625C24.9752 8.75 24.2127 8.225 23.3627 7.825C21.9159 7.15195 20.3396 6.80322 18.7439 6.80322C17.1483 6.80322 15.5719 7.15195 14.1252 7.825Z" fill="#00A6ED"/>
<path d="M32.5 28.75C33.1875 28.75 33.75 29.2625 33.75 29.89V32.5H31.25V29.89C31.2625 29.2625 31.8125 28.75 32.5 28.75Z" fill="#8B5C56"/>
<path d="M32.0939 21.3037C31.8552 21.1787 31.5539 21.3412 31.5539 21.6162V23.555C31.5539 24.08 31.1277 24.5175 30.6002 24.505C30.3548 24.5007 30.121 24.3999 29.9495 24.2244C29.778 24.0489 29.6826 23.8129 29.6839 23.5675V21.6162C29.6839 21.3412 29.3839 21.1662 29.1439 21.2912C28.6511 21.5538 28.2382 21.9444 27.9489 22.4221C27.6596 22.8997 27.5046 23.4466 27.5002 24.005C27.4877 25.2175 28.1902 26.2812 29.2077 26.8062C29.3202 26.8687 29.3952 26.9937 29.3952 27.1187V35C29.4094 35.3231 29.5478 35.6283 29.7815 35.852C30.0151 36.0757 30.3261 36.2007 30.6496 36.2008C30.973 36.201 31.2841 36.0763 31.518 35.8529C31.7519 35.6294 31.8906 35.3244 31.9052 35.0012V27.0962C31.9052 26.9712 31.9802 26.8462 32.0927 26.7837C32.5936 26.5193 33.0128 26.123 33.3049 25.6377C33.597 25.1523 33.751 24.5964 33.7502 24.03C33.7418 23.4693 33.5838 22.9209 33.2926 22.4417C33.0015 21.9624 32.5877 21.5696 32.0939 21.3037Z" fill="#9B9B9B"/>
<path d="M28.1373 31.875C28.1473 31.375 28.546 30.9375 29.0123 30.9375H32.7585C33.306 30.9375 33.7498 31.425 33.7498 32.025V36.4125C33.7498 37.0125 33.306 37.5 32.7585 37.5H29.0123C28.546 37.5 28.1473 37.1125 28.1373 36.6C28.1284 36.4442 28.158 36.2886 28.2234 36.147C28.2888 36.0053 28.388 35.8819 28.5123 35.7875C28.3893 35.6998 28.2897 35.5833 28.2222 35.4482C28.1546 35.3131 28.1212 35.1635 28.1248 35.0125C28.1248 34.6875 28.2848 34.4 28.5123 34.2375C28.3893 34.1498 28.2897 34.0333 28.2222 33.8982C28.1546 33.7631 28.1212 33.6135 28.1248 33.4625C28.1248 33.1375 28.2848 32.85 28.5123 32.6875C28.3902 32.5912 28.2926 32.4674 28.2275 32.3262C28.1623 32.185 28.1314 32.0304 28.1373 31.875Z" fill="#966661"/>
</svg>
